<svg xmlns="http://www.w3.org/2000/svg" width="96" height="95" viewBox="0 0 96 95"><g transform="translate(48 47.5) scale(0.44745763) translate(-127.98324228 -127.99970951)" fill="white"><path d="M54 173C22 134 40 76 82 49C112 30 145 34 167 44L149 60C116 52 85 72 73 101C64 123 60 147 70 163ZM202 83C234 122 216 180 174 207C144 226 111 222 89 212L107 196C140 204 171 184 183 155C192 133 196 109 186 93Z"/><path d="M172 57L177 62M183 69L187 74M80 199L75 194M69 187L65 182" fill="none" stroke="white" stroke-width="7" stroke-linecap="round" stroke-linejoin="round"/></g></svg>
